<mxfile host="65bd71144e">
    <diagram id="ZF6rKL9qjF3yf4FzDx5L" name="Page-1">
        <mxGraphModel dx="2189" dy="1039" grid="1" gridSize="10" guides="1" tooltips="1" connect="1" arrows="1" fold="1" page="1" pageScale="1" pageWidth="850" pageHeight="1100" background="light-dark(#FFFFFF,#0A0A0A)" math="0" shadow="0">
            <root>
                <mxCell id="0"/>
                <mxCell id="1" parent="0"/>
                <mxCell id="2" value="" style="edgeStyle=none;html=1;" parent="1" source="5" target="6" edge="1">
                    <mxGeometry relative="1" as="geometry"/>
                </mxCell>
                <mxCell id="3" value="" style="edgeStyle=none;html=1;entryX=0.5;entryY=0;entryDx=0;entryDy=0;" parent="1" target="7" edge="1">
                    <mxGeometry relative="1" as="geometry">
                        <mxPoint x="425" y="160" as="sourcePoint"/>
                        <Array as="points">
                            <mxPoint x="40" y="160"/>
                        </Array>
                    </mxGeometry>
                </mxCell>
                <mxCell id="4" value="" style="edgeStyle=none;html=1;entryX=0.5;entryY=0;entryDx=0;entryDy=0;" parent="1" target="9" edge="1">
                    <mxGeometry relative="1" as="geometry">
                        <mxPoint x="410" y="160" as="sourcePoint"/>
                        <Array as="points">
                            <mxPoint x="800" y="160"/>
                        </Array>
                    </mxGeometry>
                </mxCell>
                <mxCell id="5" value="EJERCICIO 2" style="whiteSpace=wrap;html=1;aspect=fixed;" parent="1" vertex="1">
                    <mxGeometry x="378" y="10" width="100" height="100" as="geometry"/>
                </mxCell>
                <mxCell id="6" value="REALIZO LOS CALCULOS" style="whiteSpace=wrap;html=1;aspect=fixed;" parent="1" vertex="1">
                    <mxGeometry x="380" y="200" width="98" height="98" as="geometry"/>
                </mxCell>
                <mxCell id="7" value="PEDIR EL VALOR ENTERO" style="whiteSpace=wrap;html=1;aspect=fixed;" parent="1" vertex="1">
                    <mxGeometry x="-10" y="199" width="98" height="98" as="geometry"/>
                </mxCell>
                <mxCell id="8" value="" style="edgeStyle=none;html=1;entryX=0.5;entryY=0;entryDx=0;entryDy=0;" parent="1" source="9" target="21" edge="1">
                    <mxGeometry relative="1" as="geometry">
                        <mxPoint x="860" y="400" as="targetPoint"/>
                    </mxGeometry>
                </mxCell>
                <mxCell id="9" value="MUESTRO RESULTADOS" style="whiteSpace=wrap;html=1;aspect=fixed;" parent="1" vertex="1">
                    <mxGeometry x="750" y="198" width="100" height="100" as="geometry"/>
                </mxCell>
                <mxCell id="10" value="PIDO Y LEO VALOR" style="whiteSpace=wrap;html=1;aspect=fixed;" parent="1" vertex="1">
                    <mxGeometry x="60" y="400" width="110" height="110" as="geometry"/>
                </mxCell>
                <mxCell id="11" value="" style="endArrow=none;html=1;entryX=0.5;entryY=1;entryDx=0;entryDy=0;" parent="1" target="7" edge="1">
                    <mxGeometry width="50" height="50" relative="1" as="geometry">
                        <mxPoint x="39" y="360" as="sourcePoint"/>
                        <mxPoint x="329" y="298" as="targetPoint"/>
                    </mxGeometry>
                </mxCell>
                <mxCell id="12" value="" style="endArrow=classic;html=1;entryX=0.5;entryY=0;entryDx=0;entryDy=0;" parent="1" edge="1">
                    <mxGeometry width="50" height="50" relative="1" as="geometry">
                        <mxPoint x="29" y="358" as="sourcePoint"/>
                        <mxPoint x="118" y="398" as="targetPoint"/>
                        <Array as="points">
                            <mxPoint x="118" y="358"/>
                        </Array>
                    </mxGeometry>
                </mxCell>
                <mxCell id="13" value="" style="endArrow=classic;html=1;entryX=0.5;entryY=0;entryDx=0;entryDy=0;" parent="1" edge="1">
                    <mxGeometry width="50" height="50" relative="1" as="geometry">
                        <mxPoint x="29" y="358" as="sourcePoint"/>
                        <mxPoint x="-52" y="398" as="targetPoint"/>
                        <Array as="points">
                            <mxPoint x="-51" y="358"/>
                        </Array>
                    </mxGeometry>
                </mxCell>
                <mxCell id="14" value="" style="endArrow=none;html=1;entryX=0.5;entryY=1;entryDx=0;entryDy=0;" parent="1" edge="1">
                    <mxGeometry width="50" height="50" relative="1" as="geometry">
                        <mxPoint x="428.5" y="360" as="sourcePoint"/>
                        <mxPoint x="428.5" y="298" as="targetPoint"/>
                    </mxGeometry>
                </mxCell>
                <mxCell id="15" value="CALCULO QUINTA PARTE" style="whiteSpace=wrap;html=1;aspect=fixed;" parent="1" vertex="1">
                    <mxGeometry x="250" y="400" width="110" height="110" as="geometry"/>
                </mxCell>
                <mxCell id="16" value="" style="endArrow=classic;html=1;entryX=0.5;entryY=0;entryDx=0;entryDy=0;" parent="1" edge="1">
                    <mxGeometry width="50" height="50" relative="1" as="geometry">
                        <mxPoint x="420" y="360" as="sourcePoint"/>
                        <mxPoint x="300" y="400" as="targetPoint"/>
                        <Array as="points">
                            <mxPoint x="301" y="360"/>
                        </Array>
                    </mxGeometry>
                </mxCell>
                <mxCell id="17" value="CALCULO RESTO DE LA DIVISION POR 5" style="whiteSpace=wrap;html=1;aspect=fixed;" parent="1" vertex="1">
                    <mxGeometry x="374" y="400" width="110" height="110" as="geometry"/>
                </mxCell>
                <mxCell id="18" value="" style="endArrow=classic;html=1;entryX=0.5;entryY=0;entryDx=0;entryDy=0;" parent="1" target="20" edge="1">
                    <mxGeometry width="50" height="50" relative="1" as="geometry">
                        <mxPoint x="420" y="360" as="sourcePoint"/>
                        <mxPoint x="549" y="400" as="targetPoint"/>
                        <Array as="points">
                            <mxPoint x="555" y="360"/>
                        </Array>
                    </mxGeometry>
                </mxCell>
                <mxCell id="19" value="" style="endArrow=classic;html=1;entryX=0.5;entryY=0;entryDx=0;entryDy=0;" parent="1" target="17" edge="1">
                    <mxGeometry width="50" height="50" relative="1" as="geometry">
                        <mxPoint x="429" y="360" as="sourcePoint"/>
                        <mxPoint x="490" y="370" as="targetPoint"/>
                    </mxGeometry>
                </mxCell>
                <mxCell id="20" value="CALCULO SEPTIMA PARTE DEL PRIMER RESULTADO&amp;nbsp;" style="whiteSpace=wrap;html=1;aspect=fixed;" parent="1" vertex="1">
                    <mxGeometry x="500" y="400" width="110" height="110" as="geometry"/>
                </mxCell>
                <mxCell id="21" value="MUESTRO QUINTA PARTE, RESTO DE LA DIVISION Y SEPTIMA PARTE" style="whiteSpace=wrap;html=1;aspect=fixed;" parent="1" vertex="1">
                    <mxGeometry x="735" y="400" width="130" height="130" as="geometry"/>
                </mxCell>
                <mxCell id="22" value="DEFINIR VARIABLES" style="whiteSpace=wrap;html=1;aspect=fixed;" parent="1" vertex="1">
                    <mxGeometry x="-110" y="400" width="110" height="110" as="geometry"/>
                </mxCell>
            </root>
        </mxGraphModel>
    </diagram>
</mxfile>